<svg id="SvgjsSvg1006" width="735.5" height="722.8125" xmlns="http://www.w3.org/2000/svg" version="1.1" xmlns:xlink="http://www.w3.org/1999/xlink" xmlns:svgjs="http://svgjs.com/svgjs"><defs id="SvgjsDefs1007"><marker id="SvgjsMarker1016" markerWidth="16" markerHeight="12" refX="16" refY="6" viewBox="0 0 16 12" orient="auto" markerUnits="userSpaceOnUse" stroke-dasharray="0,0"><path id="SvgjsPath1017" d="M0,2 L14,6 L0,11 L0,2" fill="#323232" stroke="#323232" stroke-width="2"></path></marker><marker id="SvgjsMarker1026" markerWidth="16" markerHeight="12" refX="16" refY="6" viewBox="0 0 16 12" orient="auto" markerUnits="userSpaceOnUse" stroke-dasharray="0,0"><path id="SvgjsPath1027" d="M0,2 L14,6 L0,11 L0,2" fill="#323232" stroke="#323232" stroke-width="2"></path></marker><marker id="SvgjsMarker1036" markerWidth="16" markerHeight="12" refX="16" refY="6" viewBox="0 0 16 12" orient="auto" markerUnits="userSpaceOnUse" stroke-dasharray="0,0"><path id="SvgjsPath1037" d="M0,2 L14,6 L0,11 L0,2" fill="#323232" stroke="#323232" stroke-width="2"></path></marker><marker id="SvgjsMarker1040" markerWidth="16" markerHeight="12" refX="16" refY="6" viewBox="0 0 16 12" orient="auto" markerUnits="userSpaceOnUse" stroke-dasharray="0,0"><path id="SvgjsPath1041" d="M0,2 L14,6 L0,11 L0,2" fill="#323232" stroke="#323232" stroke-width="2"></path></marker><marker id="SvgjsMarker1050" markerWidth="16" markerHeight="12" refX="16" refY="6" viewBox="0 0 16 12" orient="auto" markerUnits="userSpaceOnUse" stroke-dasharray="0,0"><path id="SvgjsPath1051" d="M0,2 L14,6 L0,11 L0,2" fill="#323232" stroke="#323232" stroke-width="2"></path></marker><pattern id="SvgjsPattern1070" x="0" y="0" width="115" height="79.625" patternUnits="userSpaceOnUse"><image id="SvgjsImage1071" xlink:href="https://cdn.processon.com/6030f3767d9c0872a675c93f?e=1613824390&amp;amp;token=trhI0BY8QfVrIGn9nENop6JAc6l5nZuxhjQ62UfM:GXJVfyDCvwP2uCurPC6LN4DTy1o=" width="115" height="79.625" preserveAspectRatio="none" crossOrigin="anonymous" x="0" y="0"></image></pattern><marker id="SvgjsMarker1074" markerWidth="16" markerHeight="12" refX="16" refY="6" viewBox="0 0 16 12" orient="auto" markerUnits="userSpaceOnUse" stroke-dasharray="0,0"><path id="SvgjsPath1075" d="M0,2 L14,6 L0,11 L0,2" fill="#323232" stroke="#323232" stroke-width="2"></path></marker><marker id="SvgjsMarker1102" markerWidth="16" markerHeight="12" refX="16" refY="6" viewBox="0 0 16 12" orient="auto" markerUnits="userSpaceOnUse" stroke-dasharray="0,0"><path id="SvgjsPath1103" d="M0,2 L14,6 L0,11 L0,2" fill="#323232" stroke="#323232" stroke-width="2"></path></marker><marker id="SvgjsMarker1106" markerWidth="16" markerHeight="12" refX="16" refY="6" viewBox="0 0 16 12" orient="auto" markerUnits="userSpaceOnUse" stroke-dasharray="0,0"><path id="SvgjsPath1107" d="M0,2 L14,6 L0,11 L0,2" fill="#323232" stroke="#323232" stroke-width="2"></path></marker><marker id="SvgjsMarker1110" markerWidth="16" markerHeight="12" refX="16" refY="6" viewBox="0 0 16 12" orient="auto" markerUnits="userSpaceOnUse" stroke-dasharray="0,0"><path id="SvgjsPath1111" d="M0,2 L14,6 L0,11 L0,2" fill="#323232" stroke="#323232" stroke-width="2"></path></marker><marker id="SvgjsMarker1114" markerWidth="16" markerHeight="12" refX="16" refY="6" viewBox="0 0 16 12" orient="auto" markerUnits="userSpaceOnUse" stroke-dasharray="0,0"><path id="SvgjsPath1115" d="M0,2 L14,6 L0,11 L0,2" fill="#323232" stroke="#323232" stroke-width="2"></path></marker></defs><g id="SvgjsG1008" transform="translate(76.5,35)"><path id="SvgjsPath1009" d="M 0 30C 0 -10 127 -10 127 30C 127 70 0 70 0 30Z" stroke="rgba(50,50,50,1)" stroke-width="2" fill-opacity="1" fill="#ffffff"></path><g id="SvgjsG1010"><text id="SvgjsText1011" font-family="微软雅黑" text-anchor="middle" font-size="19px" width="107px" fill="#323232" font-weight="400" align="middle" anchor="middle" family="微软雅黑" size="19px" weight="400" font-style="" opacity="1" y="15.15" transform="rotate(0)"><tspan id="SvgjsTspan1012" dy="23" x="63.5"><tspan id="SvgjsTspan1013" style="text-decoration:;">诗词数据集</tspan></tspan></text></g></g><g id="SvgjsG1014"><path id="SvgjsPath1015" d="M140 95L140 123.5L140 123.5L140 152" stroke="#323232" stroke-width="2" fill="none" marker-end="url(#SvgjsMarker1016)"></path></g><g id="SvgjsG1018" transform="translate(90,152)"><path id="SvgjsPath1019" d="M 0 0L 100 0L 100 38L 0 38Z" stroke="rgba(50,50,50,1)" stroke-width="2" fill-opacity="1" fill="#ffffff"></path><g id="SvgjsG1020"><text id="SvgjsText1021" font-family="微软雅黑" text-anchor="middle" font-size="20px" width="80px" fill="#323232" font-weight="400" align="middle" anchor="middle" family="微软雅黑" size="20px" weight="400" font-style="" opacity="1" y="3.5" transform="rotate(0)"><tspan id="SvgjsTspan1022" dy="25" x="50"><tspan id="SvgjsTspan1023" style="text-decoration:;">预训练</tspan></tspan></text></g></g><g id="SvgjsG1024"><path id="SvgjsPath1025" d="M140 190L140 210.5L140 210.5L140 231" stroke="#323232" stroke-width="2" fill="none" marker-end="url(#SvgjsMarker1026)"></path></g><g id="SvgjsG1028" transform="translate(90,227)"><path id="SvgjsPath1029" d="M 0 26.5C 0 -8.833333333333334 308 -8.833333333333334 308 26.5C 308 61.833333333333336 0 61.833333333333336 0 26.5Z" stroke="rgba(50,50,50,1)" stroke-width="2" fill-opacity="1" fill="#ffffff"></path><g id="SvgjsG1030"><text id="SvgjsText1031" font-family="微软雅黑" text-anchor="middle" font-size="21px" width="288px" fill="#323232" font-weight="400" align="middle" anchor="middle" family="微软雅黑" size="21px" weight="400" font-style="" opacity="1" y="8.35" transform="rotate(0)"><tspan id="SvgjsTspan1032" dy="26" x="154"><tspan id="SvgjsTspan1033" style="text-decoration:;">预训练模型</tspan></tspan></text></g></g><g id="SvgjsG1034"><path id="SvgjsPath1035" d="M320 95L320 162.9923893961835L320.1513770290094 162.9923893961835L320.1513770290094 230.98477879236697" stroke="#323232" stroke-width="2" fill="none" marker-end="url(#SvgjsMarker1036)"></path></g><g id="SvgjsG1038"><path id="SvgjsPath1039" d="M243 281L243 309.5L243 309.5L243 338" stroke="#323232" stroke-width="2" fill="none" marker-end="url(#SvgjsMarker1040)"></path></g><g id="SvgjsG1042" transform="translate(142.5,338)"><path id="SvgjsPath1043" d="M 0 0L 203 0L 203 33L 0 33Z" stroke="rgba(50,50,50,1)" stroke-width="2" fill-opacity="1" fill="#ffffff"></path><g id="SvgjsG1044"><text id="SvgjsText1045" font-family="微软雅黑" text-anchor="middle" font-size="19px" width="183px" fill="#323232" font-weight="400" align="middle" anchor="middle" family="微软雅黑" size="19px" weight="400" font-style="" opacity="1" y="1.65" transform="rotate(0)"><tspan id="SvgjsTspan1046" dy="23" x="101.5"><tspan id="SvgjsTspan1047" style="text-decoration:;">Fine-Tuning</tspan></tspan></text></g></g><g id="SvgjsG1048"><path id="SvgjsPath1049" d="M244 370L244 398.5L244 398.5L244 427" stroke="#323232" stroke-width="2" fill="none" marker-end="url(#SvgjsMarker1050)"></path></g><g id="SvgjsG1052" transform="translate(180.5,430)"><path id="SvgjsPath1053" d="M 0 30C 0 -10 127 -10 127 30C 127 70 0 70 0 30Z" stroke="rgba(50,50,50,1)" stroke-width="2" fill-opacity="1" fill="#ffffff"></path><g id="SvgjsG1054"><text id="SvgjsText1055" font-family="微软雅黑" text-anchor="middle" font-size="19px" width="107px" fill="#323232" font-weight="400" align="middle" anchor="middle" family="微软雅黑" size="19px" weight="400" font-style="" opacity="1" y="15.15" transform="rotate(0)"><tspan id="SvgjsTspan1056" dy="23" x="63.5"><tspan id="SvgjsTspan1057" style="text-decoration:;">Model</tspan></tspan></text></g></g><g id="SvgjsG1058" transform="translate(25,525.8125)"><path id="SvgjsPath1059" d="M 0 4Q 0 0 4 0L 493.5 0Q 497.5 0 497.5 4L 497.5 168Q 497.5 172 493.5 172L 4 172Q 0 172 0 168Z" stroke-dasharray="10,6" stroke="rgba(50,50,50,1)" stroke-width="2" fill-opacity="1" fill="#ffffff"></path><g id="SvgjsG1060"><text id="SvgjsText1061" font-family="微软雅黑" text-anchor="middle" font-size="16px" width="478px" fill="#323232" font-weight="400" align="middle" anchor="middle" family="微软雅黑" size="16px" weight="400" font-style="" opacity="1" y="73.6" transform="rotate(0)"></text></g></g><g id="SvgjsG1062" transform="translate(58.75,532.5)"><path id="SvgjsPath1063" d="M 0 0L 78.75 0L 78.75 43.75L 0 43.75Z" stroke="none" fill="none"></path><g id="SvgjsG1064"><text id="SvgjsText1065" font-family="微软雅黑" text-anchor="middle" font-size="19px" width="79px" fill="#323232" font-weight="400" align="middle" anchor="middle" family="微软雅黑" size="19px" weight="400" font-style="" opacity="1" y="7.025" transform="rotate(0)"><tspan id="SvgjsTspan1066" dy="23" x="39.5"><tspan id="SvgjsTspan1067" style="text-decoration:;">Service</tspan></tspan></text></g></g><g id="SvgjsG1068" transform="translate(595.5,564.375)"><path id="SvgjsPath1069" d="M 0 0L 115 0L 115 79.625L 0 79.625Z" stroke="none" fill="url(#SvgjsPattern1070)"></path></g><g id="SvgjsG1072"><path id="SvgjsPath1073" d="M244 490L244 530.1875L244 530.1875L244 570.375" stroke="#323232" stroke-width="2" fill="none" marker-end="url(#SvgjsMarker1074)"></path></g><g id="SvgjsG1076" transform="translate(139,570.375)"><path id="SvgjsPath1077" d="M 0 33.8125C 0 -11.270833333333334 210 -11.270833333333334 210 33.8125C 210 78.89583333333333 0 78.89583333333333 0 33.8125Z" stroke="rgba(50,50,50,1)" stroke-width="2" fill-opacity="1" fill="#ffffff"></path><g id="SvgjsG1078"><text id="SvgjsText1079" font-family="微软雅黑" text-anchor="middle" font-size="19px" width="190px" fill="#323232" font-weight="400" align="middle" anchor="middle" family="微软雅黑" size="19px" weight="400" font-style="" opacity="1" y="18.9625" transform="rotate(0)"><tspan id="SvgjsTspan1080" dy="23" x="105"><tspan id="SvgjsTspan1081" style="text-decoration:;">MindSpore Serving</tspan></tspan></text></g></g><g id="SvgjsG1082" transform="translate(47.75,658)"><path id="SvgjsPath1083" d="M 0 0L 162.5 0L 162.5 32.125L 0 32.125Z" stroke="none" fill="none"></path><g id="SvgjsG1084"><text id="SvgjsText1085" font-family="微软雅黑" text-anchor="middle" font-size="19px" width="163px" fill="#323232" font-weight="400" align="middle" anchor="middle" family="微软雅黑" size="19px" weight="400" font-style="" opacity="1" y="1.2125" transform="rotate(0)"><tspan id="SvgjsTspan1086" dy="23" x="81.5"><tspan id="SvgjsTspan1087" style="text-decoration:;">裸机Docker部署</tspan></tspan></text></g></g><g id="SvgjsG1088" transform="translate(386.5,568)"><path id="SvgjsPath1089" d="M 0 0L 103 0L 103 27L 0 27Z" stroke="rgba(50,50,50,1)" stroke-width="2" fill-opacity="1" fill="#ffffff"></path><g id="SvgjsG1090"><text id="SvgjsText1091" font-family="微软雅黑" text-anchor="middle" font-size="16px" width="83px" fill="#323232" font-weight="400" align="middle" anchor="middle" family="微软雅黑" size="16px" weight="400" font-style="" opacity="1" y="1.1" transform="rotate(0)"><tspan id="SvgjsTspan1092" dy="20" x="51.5"><tspan id="SvgjsTspan1093" style="text-decoration:;">数据预处理</tspan></tspan></text></g></g><g id="SvgjsG1094" transform="translate(386.5,609)"><path id="SvgjsPath1095" d="M 0 0L 103 0L 103 29L 0 29Z" stroke="rgba(50,50,50,1)" stroke-width="2" fill-opacity="1" fill="#ffffff"></path><g id="SvgjsG1096"><text id="SvgjsText1097" font-family="微软雅黑" text-anchor="middle" font-size="16px" width="83px" fill="#323232" font-weight="400" align="middle" anchor="middle" family="微软雅黑" size="16px" weight="400" font-style="" opacity="1" y="2.1" transform="rotate(0)"><tspan id="SvgjsTspan1098" dy="20" x="51.5"><tspan id="SvgjsTspan1099" style="text-decoration:;">数据后处理</tspan></tspan></text></g></g><g id="SvgjsG1100"><path id="SvgjsPath1101" d="M386.5 581.5L366 581.5L366 581.5L345.5 581.5" stroke="#323232" stroke-width="2" fill="none" marker-end="url(#SvgjsMarker1102)"></path></g><g id="SvgjsG1104"><path id="SvgjsPath1105" d="M589.5 580.875L545 580.875L545 580.875L500.5 580.875" stroke="#323232" stroke-width="2" fill="none" marker-end="url(#SvgjsMarker1106)"></path></g><g id="SvgjsG1108"><path id="SvgjsPath1109" d="M498.5 625.1875L541 625.1875L541 625.1875L583.5 625.1875" stroke="#323232" stroke-width="2" fill="none" marker-end="url(#SvgjsMarker1110)"></path></g><g id="SvgjsG1112"><path id="SvgjsPath1113" d="M327.5 625.1875L354.5 625.1875L354.5 625.1875L381.5 625.1875" stroke="#323232" stroke-width="2" fill="none" marker-end="url(#SvgjsMarker1114)"></path></g><g id="SvgjsG1116" transform="translate(613.5,523)"><path id="SvgjsPath1117" d="M 0 0L 86 0L 86 24L 0 24Z" stroke="none" fill="none"></path><g id="SvgjsG1118"><text id="SvgjsText1119" font-family="微软雅黑" text-anchor="middle" font-size="19px" width="86px" fill="#323232" font-weight="400" align="middle" anchor="middle" family="微软雅黑" size="19px" weight="400" font-style="" opacity="1" y="-2.85" transform="rotate(0)"><tspan id="SvgjsTspan1120" dy="23" x="43"><tspan id="SvgjsTspan1121" style="text-decoration:;">Clients</tspan></tspan></text></g></g><g id="SvgjsG1122" transform="translate(530.5,545)"><path id="SvgjsPath1123" d="M 0 0L 48 0L 48 23L 0 23Z" stroke="none" fill="none"></path><g id="SvgjsG1124"><text id="SvgjsText1125" font-family="微软雅黑" text-anchor="middle" font-size="19px" width="48px" fill="#323232" font-weight="400" align="middle" anchor="middle" family="微软雅黑" size="19px" weight="400" font-style="" opacity="1" y="-3.35" transform="rotate(0)"><tspan id="SvgjsTspan1126" dy="23" x="24"><tspan id="SvgjsTspan1127" style="text-decoration:;">Http</tspan></tspan></text></g></g><g id="SvgjsG1128" transform="translate(272.5,25)"><path id="SvgjsPath1129" d="M 12.12 49C -10.100000000000001 35 4.04 24.5 9.09 21C 7.07 3.5 32.32 0 42.42 7C 50.5 -3.5 75.75 0 75.75 10.5C 95.94999999999999 7 104.03 21 95.94999999999999 38.5C 103.02 52.5 95.94999999999999 70 72.72 63C 67.67 72.10000000000001 47.47 72.10000000000001 42.42 63C 32.32 70 12.12 66.5 12.12 49Z" stroke="rgba(50,50,50,1)" stroke-width="2" fill-opacity="1" fill="#ffffff"></path><g id="SvgjsG1130"><text id="SvgjsText1131" font-family="微软雅黑" text-anchor="middle" font-size="18px" width="81px" fill="#323232" font-weight="400" align="middle" anchor="middle" family="微软雅黑" size="18px" weight="400" font-style="" opacity="1" y="20.8" transform="rotate(0)"><tspan id="SvgjsTspan1132" dy="22" x="50.5"><tspan id="SvgjsTspan1133" style="text-decoration:;">ModelHub</tspan></tspan></text></g></g></svg>