<?xml version="1.0" encoding="UTF-8"?>
<svg width="208px" height="40px" viewBox="0 0 208 40" version="1.1" xmlns="http://www.w3.org/2000/svg" xmlns:xlink="http://www.w3.org/1999/xlink">
    <title>Gitee-en</title>
    <defs>
        <polygon id="path-1" points="0 0 24 0 24 24 0 24"></polygon>
    </defs>
    <g id="页面-1" stroke="none" stroke-width="1" fill="none" fill-rule="evenodd">
        <g id="文档外链样式" transform="translate(-243.000000, -25.000000)">
            <g id="Gitee-en" transform="translate(243.000000, 25.000000)">
                <rect id="矩形" stroke="#E5E5E5" fill="#FFFFFF" x="0.5" y="0.5" width="207" height="39" rx="19.5"></rect>
                <g id="编组" transform="translate(16.000000, 8.000000)">
                    <g transform="translate(0.000000, 0.000000)">
                        <mask id="mask-2" fill="white">
                            <use xlink:href="#path-1"></use>
                        </mask>
                        <g id="Clip-2"></g>
                        <path d="M12,0 C18.6273688,0 24,5.3725773 24,11.9998796 C24,18.6274495 18.6273688,24.0000268 12,24.0000268 C5.3726312,24.0000268 0,18.6274495 0,11.9998796 C0,5.3725773 5.3726312,0 12,0" id="Fill-1" fill="#C71D23" mask="url(#mask-2)"></path>
                    </g>
                    <path d="M18.0741339,10.6667945 L11.2592233,10.6667945 C10.9320284,10.667062 10.6669015,10.9321862 10.666634,11.2596454 L10.6660989,12.74097 C10.6658314,13.0681616 10.9312258,13.3335533 11.2584207,13.3338208 C11.2584207,13.3338208 11.2584207,13.3338208 11.2584207,13.3335533 L15.4073483,13.3335533 C15.7348107,13.3335533 16.0002051,13.5986775 16.0002051,13.9261366 L16.0002051,14.0740818 L16.0002051,14.2222946 C16.0002051,15.2041369 15.2040219,16.0003121 14.2224372,16.0003121 L8.59217015,16.0003121 C8.26497525,16.0000446 7.99958086,15.7346529 7.99958086,15.4077288 L7.99958086,9.77805324 C7.99931333,8.79621086 8.79522897,8.0003032 9.7770812,8.0003032 L18.0725286,8.0003032 C18.3997235,7.99976814 18.6648504,7.73491147 18.6653855,7.40771986 L18.6661881,5.92612773 C18.6669907,5.59920365 18.4018638,5.33354439 18.0744014,5.33327685 C18.0744014,5.33327685 18.0741339,5.33327685 18.0741339,5.33354439 L9.77761627,5.33354439 C7.32298569,5.33354439 5.33333036,7.32344728 5.33333036,9.77832077 L5.33333036,18.0739525 C5.33333036,18.4014117 5.59872475,18.6665359 5.92591965,18.6665359 L14.6668123,18.6665359 C16.8758461,18.6665359 18.6667231,16.8759443 18.6667231,14.6666652 L18.6667231,11.2596454 C18.6667231,10.9321862 18.4013288,10.6667945 18.0741339,10.6667945" id="Fill-3" fill="#FFFFFF"></path>
                </g>
                <text id="View-source-on-Gitee" font-family="PingFangSC-Regular, PingFang SC" font-size="14" font-weight="normal" line-spacing="22" fill="#000000">
                    <tspan x="52" y="24">View source on Gitee</tspan>
                </text>
            </g>
        </g>
    </g>
</svg>