<?xml version="1.0" encoding="UTF-8"?>
<svg width="205px" height="40px" viewBox="0 0 205 40" version="1.1" xmlns="http://www.w3.org/2000/svg" xmlns:xlink="http://www.w3.org/1999/xlink">
    <title>ModelArts</title>
    <defs>
        <polygon id="path-1" points="0 0 24 0 24 24 0 24"></polygon>
    </defs>
    <g id="页面-1" stroke="none" stroke-width="1" fill="none" fill-rule="evenodd">
        <g id="文档外链样式" transform="translate(-30.000000, -212.000000)">
            <g id="ModelArts" transform="translate(30.000000, 212.000000)">
                <rect id="矩形" stroke="#E5E5E5" fill="#FFFFFF" x="0.5" y="0.5" width="204" height="39" rx="19.5"></rect>
                <g id="编组" transform="translate(16.000000, 8.000000)">
                    <g>
                        <mask id="mask-2" fill="white">
                            <use xlink:href="#path-1"></use>
                        </mask>
                        <g id="Clip-2"></g>
                        <path d="M12,0 C18.6273688,0 24,5.3725773 24,11.9998796 C24,18.6274495 18.6273688,24.0000268 12,24.0000268 C5.3726312,24.0000268 0,18.6274495 0,11.9998796 C0,5.3725773 5.3726312,0 12,0" id="Fill-1" fill="#C71D23" mask="url(#mask-2)"></path>
                    </g>
                    <g id="编组备份" transform="translate(3.000000, 3.000000)">
                        <rect id="矩形" x="0" y="0" width="18" height="18"></rect>
                        <path d="M13.125,2.6625 C13.8291631,2.6625 14.4,3.23333694 14.4,3.9375 C14.4,4.42436274 14.1271156,4.84748991 13.7259537,5.06227473 L16.1924802,12.8130006 C16.7744614,12.9311269 17.2125,13.4456588 17.2125,14.0625 C17.2125,14.7666631 16.6416631,15.3375 15.9375,15.3375 C15.2333369,15.3375 14.6625,14.7666631 14.6625,14.0625 C14.6625,13.6255099 14.882341,13.2398665 15.2174587,13.010134 L11.0605,9.9095 L9.50342666,12.8907412 C9.91922446,13.0696189 10.220808,13.4633381 10.2684173,13.9321387 L10.275,14.0625 C10.275,14.7666631 9.70416306,15.3375 9,15.3375 C8.29583694,15.3375 7.725,14.7666631 7.725,14.0625 C7.725,13.5343777 8.04609578,13.0812514 8.50371246,12.8876958 L7.0145,9.9105 L2.78662653,13.0129462 C3.11944447,13.2430058 3.3375,13.6272881 3.3375,14.0625 C3.3375,14.7666631 2.76666306,15.3375 2.0625,15.3375 C1.35833694,15.3375 0.7875,14.7666631 0.7875,14.0625 C0.7875,13.4439123 1.22802254,12.9282142 1.81246643,12.8120068 L4.4301112,5.13273278 C3.94532111,4.95221069 3.6,4.48518238 3.6,3.9375 C3.6,3.23333694 4.17083694,2.6625 4.875,2.6625 C5.57916306,2.6625 6.15,3.23333694 6.15,3.9375 C6.15,4.37445832 5.93019092,4.76007749 5.59511435,4.98981588 L9.0595,7.5745 L12.5028631,5.05067301 C12.149157,4.85256744 11.8995308,4.49076411 11.8565827,4.06786134 L11.85,3.9375 C11.85,3.23333694 12.4208369,2.6625 13.125,2.6625 Z M9,13.4625 C8.66862915,13.4625 8.4,13.7311292 8.4,14.0625 C8.4,14.3938708 8.66862915,14.6625 9,14.6625 C9.33137085,14.6625 9.6,14.3938708 9.6,14.0625 C9.6,13.7311292 9.33137085,13.4625 9,13.4625 Z M15.9375,13.4625 C15.6061292,13.4625 15.3375,13.7311292 15.3375,14.0625 C15.3375,14.3938708 15.6061292,14.6625 15.9375,14.6625 C16.2688708,14.6625 16.5375,14.3938708 16.5375,14.0625 C16.5375,13.7311292 16.2688708,13.4625 15.9375,13.4625 Z M2.05477638,13.4639787 L1.96517688,13.470353 C1.68008961,13.5168532 1.4625,13.7642662 1.4625,14.0625 C1.4625,14.3938708 1.73112915,14.6625 2.0625,14.6625 C2.39387085,14.6625 2.6625,14.3938708 2.6625,14.0625 C2.6625,13.7311292 2.39387085,13.4625 2.0625,13.4625 L2.07897488,13.46374 C2.07087934,13.4641243 2.06280868,13.4642005 2.05477638,13.4639787 Z M9.0555,8.4145 L7.5675,9.5055 L9.0065,12.3825 L10.5135,9.5005 L9.0555,8.4145 Z M13.2355,5.7475 L11.3775,9.3035 L15.2975,12.2265 L13.2355,5.7475 Z M4.9335,5.7475 L2.7279375,12.21825 L6.7085,9.2985 L4.9335,5.7475 Z M12.340125,6.0065625 L9.6255,7.9965 L10.8295,8.8945 L12.340125,6.0065625 Z M5.812125,5.99475 L7.2615,8.8935 L8.4895,7.9925 L5.812125,5.99475 Z M13.125,3.3375 C12.7936292,3.3375 12.525,3.60612915 12.525,3.9375 C12.525,4.26887085 12.7936292,4.5375 13.125,4.5375 C13.4563708,4.5375 13.725,4.26887085 13.725,3.9375 C13.725,3.60612915 13.4563708,3.3375 13.125,3.3375 Z M4.875,3.3375 C4.54362915,3.3375 4.275,3.60612915 4.275,3.9375 C4.275,4.23573376 4.49258961,4.48314675 4.77767688,4.52964701 L4.8605,4.5355 L4.87280999,4.53523565 C4.8768295,4.53519607 4.88085878,4.53523247 4.88489621,4.53534619 C5.21188104,4.53195459 5.475,4.26545466 5.475,3.9375 C5.475,3.60612915 5.20637085,3.3375 4.875,3.3375 Z" id="形状结合" fill="#FFFFFF" fill-rule="nonzero"></path>
                    </g>
                </g>
                <text id="在ModelArts平台运行" font-family="PingFangSC-Regular, PingFang SC" font-size="14" font-weight="normal" line-spacing="22" fill="#000000">
                    <tspan x="52" y="24">在ModelArts平台运行</tspan>
                </text>
            </g>
        </g>
    </g>
</svg>