<?xml version="1.0" encoding="UTF-8"?>
<svg width="152px" height="40px" viewBox="0 0 152 40" version="1.1" xmlns="http://www.w3.org/2000/svg" xmlns:xlink="http://www.w3.org/1999/xlink">
    <title>代码</title>
    <defs>
        <polygon id="path-1" points="0 0 24 0 24 24 0 24"></polygon>
    </defs>
    <g id="页面-1" stroke="none" stroke-width="1" fill="none" fill-rule="evenodd">
        <g id="文档外链样式" transform="translate(-30.000000, -83.000000)">
            <g id="代码" transform="translate(30.000000, 83.000000)">
                <rect id="矩形" stroke="#E5E5E5" fill="#FFFFFF" x="0.5" y="0.5" width="151" height="39" rx="19.5"></rect>
                <g id="编组" transform="translate(16.000000, 8.000000)">
                    <g>
                        <mask id="mask-2" fill="white">
                            <use xlink:href="#path-1"></use>
                        </mask>
                        <g id="Clip-2"></g>
                        <path d="M12,0 C18.6273688,0 24,5.3725773 24,11.9998796 C24,18.6274495 18.6273688,24.0000268 12,24.0000268 C5.3726312,24.0000268 0,18.6274495 0,11.9998796 C0,5.3725773 5.3726312,0 12,0" id="Fill-1" fill="#3366FF" mask="url(#mask-2)"></path>
                    </g>
                    <g transform="translate(3.000000, 3.000000)">
                        <rect id="矩形" x="0" y="0" width="18" height="18"></rect>
                        <path d="M15.3439516,2.1625 C16.2480952,2.1625 16.9810484,2.89545319 16.9810484,3.79959677 L16.9827218,6.36909735 C16.9939887,6.41082023 17,6.45470681 17,6.5 C17,6.54570175 16.9938798,6.5899714 16.9824156,6.63203118 L16.9810484,14.5254032 C16.9810484,15.4295468 16.2480952,16.1625 15.3439516,16.1625 L2.92459677,16.1625 C2.02045319,16.1625 1.2875,15.4295468 1.2875,14.5254032 L1.2875,3.79959677 C1.2875,2.89545319 2.02045319,2.1625 2.92459677,2.1625 L15.3439516,2.1625 Z M2.30328328,6.96005629 L2.30362903,14.5254032 C2.30362903,14.8683542 2.58164576,15.146371 2.92459677,15.146371 L15.3439516,15.146371 C15.6869026,15.146371 15.9649194,14.8683542 15.9649194,14.5254032 L15.9645,6.9995 L2.49907579,7 C2.42957884,7 2.36339965,6.98576871 2.30328328,6.96005629 Z M10.1478287,8.49108779 C10.3501101,8.57777978 10.4502006,8.80335852 10.3844832,9.00878067 L10.3702025,9.04702228 L8.67665415,12.9986352 C8.5845439,13.2135591 8.33564355,13.3131192 8.12071965,13.221009 C7.91843833,13.134317 7.81834775,12.9087383 7.88406523,12.7033161 L7.89834585,12.6650745 L9.59189424,8.71346159 C9.68400448,8.49853769 9.93290484,8.39897755 10.1478287,8.49108779 Z M10.7792836,9.18054636 C10.9252037,8.99783373 11.1916132,8.96800749 11.3743258,9.11392758 L13.0678742,10.466449 L13.0992538,10.4940715 C13.2870208,10.6762018 13.2665084,10.9897962 13.0467773,11.1439087 L11.3532289,12.3317099 L11.3187332,12.3535367 C11.1311766,12.4600241 10.8898553,12.4083724 10.7634848,12.2281954 L10.741658,12.1936998 C10.6351707,12.0061432 10.6868223,11.7648218 10.8669993,11.6384514 L12.0977351,10.7750403 L10.8459024,9.77558855 L10.813441,9.7468664 C10.660148,9.59669421 10.6424835,9.35183945 10.7792836,9.18054636 Z M7.48929823,9.18054636 C7.62609831,9.35183945 7.60843385,9.59669421 7.45514085,9.7468664 L7.42267945,9.77558855 L6.17084677,10.7750403 L7.40158252,11.6384514 C7.58175951,11.7648218 7.63341117,12.0061432 7.5269238,12.1936998 L7.50509699,12.2281954 C7.37872656,12.4083724 7.13740521,12.4600241 6.94984859,12.3535367 L6.91535296,12.3317099 L5.22180458,11.1439087 C5.00207339,10.9897962 4.98156108,10.6762018 5.16932806,10.4940715 L5.20070765,10.466449 L6.89425604,9.11392758 C7.07696867,8.96800749 7.34337813,8.99783373 7.48929823,9.18054636 Z M15.3439516,3.17862903 L2.92459677,3.17862903 C2.58164576,3.17862903 2.30362903,3.45664576 2.30362903,3.79959677 L2.30363997,6.03979131 C2.35173525,6.01926496 2.40370453,6.00608482 2.45814381,6.00165749 L2.49907579,6 L15.9645,5.9995 L15.9649194,3.79959677 C15.9649194,3.45664576 15.6869026,3.17862903 15.3439516,3.17862903 Z M5.5,4 C5.77614237,4 6,4.22385763 6,4.5 C6,4.77614237 5.77614237,5 5.5,5 C5.22385763,5 5,4.77614237 5,4.5 C5,4.22385763 5.22385763,4 5.5,4 Z M7.5,4 C7.77614237,4 8,4.22385763 8,4.5 C8,4.77614237 7.77614237,5 7.5,5 C7.22385763,5 7,4.77614237 7,4.5 C7,4.22385763 7.22385763,4 7.5,4 Z M3.5,4 C3.77614237,4 4,4.22385763 4,4.5 C4,4.77614237 3.77614237,5 3.5,5 C3.22385763,5 3,4.77614237 3,4.5 C3,4.22385763 3.22385763,4 3.5,4 Z" id="形状结合" fill="#FFFFFF" fill-rule="nonzero"></path>
                    </g>
                </g>
                <text id="下载样例代码" font-family="PingFangSC-Regular, PingFang SC" font-size="14" font-weight="normal" line-spacing="22" fill="#000000">
                    <tspan x="52" y="24">下载样例代码</tspan>
                </text>
            </g>
        </g>
    </g>
</svg>