<?xml version="1.0" encoding="UTF-8"?>
<svg width="172px" height="40px" viewBox="0 0 172 40" version="1.1" xmlns="http://www.w3.org/2000/svg" xmlns:xlink="http://www.w3.org/1999/xlink">
    <title>notebook-en</title>
    <defs>
        <polygon id="path-1" points="0 0 24 0 24 24 0 24"></polygon>
    </defs>
    <g id="页面-1" stroke="none" stroke-width="1" fill="none" fill-rule="evenodd">
        <g id="文档外链样式" transform="translate(-217.000000, -141.000000)">
            <g id="notebook-en" transform="translate(217.000000, 141.000000)">
                <rect id="矩形" stroke="#E5E5E5" fill="#FFFFFF" x="0.5" y="0.5" width="171" height="39" rx="19.5"></rect>
                <text id="Download-Code" font-family="PingFangSC-Regular, PingFang SC" font-size="14" font-weight="normal" line-spacing="22" fill="#000000">
                    <tspan x="52" y="24">Download Code</tspan>
                </text>
                <g id="编组备份-3" transform="translate(16.000000, 8.000000)">
                    <g id="编组">
                        <mask id="mask-2" fill="white">
                            <use xlink:href="#path-1"></use>
                        </mask>
                        <g id="Clip-2"></g>
                        <path d="M12,0 C18.6273688,0 24,5.3725773 24,11.9998796 C24,18.6274495 18.6273688,24.0000268 12,24.0000268 C5.3726312,24.0000268 0,18.6274495 0,11.9998796 C0,5.3725773 5.3726312,0 12,0" id="Fill-1" fill="#0D8DFF" mask="url(#mask-2)"></path>
                    </g>
                    <g id="编组" transform="translate(4.000000, 4.000000)" fill="#FFFFFF" fill-rule="nonzero">
                        <path d="M12.0949479,0 C13.7781014,0 15.142567,1.36446553 15.142567,3.04761905 L15.142567,12.9523809 C15.142567,14.6355345 13.7781014,16 12.0949479,16 L4.09494793,16 C2.4117944,16 1.04732887,14.6355345 1.04732887,12.9523809 L1.04732887,3.04761905 C1.04732887,1.36446553 2.4117944,0 4.09494793,0 L12.0949479,0 L12.0949479,0 Z M12.0949479,1.33333334 L4.09494793,1.33333334 C3.17957395,1.33333334 2.42569125,2.05249955 2.38256696,2.96685714 L2.38066221,3.04761905 L2.38066221,12.9523809 C2.38066221,13.8677549 3.09982842,14.6216376 4.01418602,14.6647619 L4.09494793,14.6666667 L12.0949479,14.6666667 C13.0103219,14.6666667 13.7642046,13.9475004 13.8073289,13.0331429 L13.8092336,12.9523809 L13.8092336,3.04761905 C13.8092336,2.13224507 13.0900674,1.37836237 12.1757098,1.33523809 L12.0949479,1.33333334 Z" id="形状"></path>
                        <path d="M2.76161459,4.66666666 C3.11900964,4.66682735 3.41269904,4.94878894 3.42741605,5.30588089 C3.44213306,5.66297283 3.17264151,5.96814509 2.81647173,5.99771429 L2.76161459,6 L0.666376498,6 C0.308981451,5.99983931 0.0152920494,5.71787772 0.000575037561,5.36078577 C-0.0141419743,5.00369383 0.255349581,4.69852157 0.611519355,4.66895237 L0.666376498,4.66666666 L2.76161459,4.66666666 Z M2.76161459,10 C3.11900964,10.0001607 3.41269904,10.2821223 3.42741605,10.6392142 C3.44213306,10.9963062 3.17264151,11.3014784 2.81647173,11.3310476 L2.76161459,11.3333333 L0.666376498,11.3333333 C0.308981451,11.3331727 0.0152920494,11.0512111 0.000575037561,10.6941191 C-0.0141419743,10.3370272 0.255349581,10.0318549 0.611519355,10.0022857 L0.666376498,10 L2.76161459,10 Z M11.142567,5.04761905 C11.4894784,5.04761905 11.7784021,5.31369362 11.8069479,5.65942857 L11.8092336,5.71428571 L11.8092336,10.2857143 C11.809073,10.6431093 11.5271114,10.9367987 11.1700194,10.9515157 C10.8129275,10.9662328 10.5077552,10.6967412 10.478186,10.3405714 L10.4759003,10.2857143 L10.4759003,5.71428571 C10.4759003,5.34628571 10.774567,5.04761905 11.142567,5.04761905 Z" id="形状"></path>
                    </g>
                </g>
            </g>
        </g>
    </g>
</svg>