<svg id="SvgjsSvg1138" width="735.5" height="722.8125" xmlns="http://www.w3.org/2000/svg" version="1.1" xmlns:xlink="http://www.w3.org/1999/xlink" xmlns:svgjs="http://svgjs.com/svgjs"><defs id="SvgjsDefs1139"><marker id="SvgjsMarker1148" markerWidth="16" markerHeight="12" refX="16" refY="6" viewBox="0 0 16 12" orient="auto" markerUnits="userSpaceOnUse" stroke-dasharray="0,0"><path id="SvgjsPath1149" d="M0,2 L14,6 L0,11 L0,2" fill="#323232" stroke="#323232" stroke-width="2"></path></marker><marker id="SvgjsMarker1158" markerWidth="16" markerHeight="12" refX="16" refY="6" viewBox="0 0 16 12" orient="auto" markerUnits="userSpaceOnUse" stroke-dasharray="0,0"><path id="SvgjsPath1159" d="M0,2 L14,6 L0,11 L0,2" fill="#323232" stroke="#323232" stroke-width="2"></path></marker><marker id="SvgjsMarker1168" markerWidth="16" markerHeight="12" refX="16" refY="6" viewBox="0 0 16 12" orient="auto" markerUnits="userSpaceOnUse" stroke-dasharray="0,0"><path id="SvgjsPath1169" d="M0,2 L14,6 L0,11 L0,2" fill="#323232" stroke="#323232" stroke-width="2"></path></marker><marker id="SvgjsMarker1172" markerWidth="16" markerHeight="12" refX="16" refY="6" viewBox="0 0 16 12" orient="auto" markerUnits="userSpaceOnUse" stroke-dasharray="0,0"><path id="SvgjsPath1173" d="M0,2 L14,6 L0,11 L0,2" fill="#323232" stroke="#323232" stroke-width="2"></path></marker><marker id="SvgjsMarker1182" markerWidth="16" markerHeight="12" refX="16" refY="6" viewBox="0 0 16 12" orient="auto" markerUnits="userSpaceOnUse" stroke-dasharray="0,0"><path id="SvgjsPath1183" d="M0,2 L14,6 L0,11 L0,2" fill="#323232" stroke="#323232" stroke-width="2"></path></marker><pattern id="SvgjsPattern1202" x="0" y="0" width="115" height="79.625" patternUnits="userSpaceOnUse"><image id="SvgjsImage1203" xlink:href="https://cdn.processon.com/6030f3767d9c0872a675c93f?e=1613824390&amp;amp;token=trhI0BY8QfVrIGn9nENop6JAc6l5nZuxhjQ62UfM:GXJVfyDCvwP2uCurPC6LN4DTy1o=" width="115" height="79.625" preserveAspectRatio="none" crossOrigin="anonymous" x="0" y="0"></image></pattern><marker id="SvgjsMarker1206" markerWidth="16" markerHeight="12" refX="16" refY="6" viewBox="0 0 16 12" orient="auto" markerUnits="userSpaceOnUse" stroke-dasharray="0,0"><path id="SvgjsPath1207" d="M0,2 L14,6 L0,11 L0,2" fill="#323232" stroke="#323232" stroke-width="2"></path></marker><marker id="SvgjsMarker1238" markerWidth="16" markerHeight="12" refX="16" refY="6" viewBox="0 0 16 12" orient="auto" markerUnits="userSpaceOnUse" stroke-dasharray="0,0"><path id="SvgjsPath1239" d="M0,2 L14,6 L0,11 L0,2" fill="#323232" stroke="#323232" stroke-width="2"></path></marker><marker id="SvgjsMarker1242" markerWidth="16" markerHeight="12" refX="16" refY="6" viewBox="0 0 16 12" orient="auto" markerUnits="userSpaceOnUse" stroke-dasharray="0,0"><path id="SvgjsPath1243" d="M0,2 L14,6 L0,11 L0,2" fill="#323232" stroke="#323232" stroke-width="2"></path></marker><marker id="SvgjsMarker1246" markerWidth="16" markerHeight="12" refX="16" refY="6" viewBox="0 0 16 12" orient="auto" markerUnits="userSpaceOnUse" stroke-dasharray="0,0"><path id="SvgjsPath1247" d="M0,2 L14,6 L0,11 L0,2" fill="#323232" stroke="#323232" stroke-width="2"></path></marker><marker id="SvgjsMarker1250" markerWidth="16" markerHeight="12" refX="16" refY="6" viewBox="0 0 16 12" orient="auto" markerUnits="userSpaceOnUse" stroke-dasharray="0,0"><path id="SvgjsPath1251" d="M0,2 L14,6 L0,11 L0,2" fill="#323232" stroke="#323232" stroke-width="2"></path></marker></defs><g id="SvgjsG1140" transform="translate(76.5,35)"><path id="SvgjsPath1141" d="M 0 30C 0 -10 127 -10 127 30C 127 70 0 70 0 30Z" stroke="rgba(50,50,50,1)" stroke-width="2" fill-opacity="1" fill="#ffffff"></path><g id="SvgjsG1142"><text id="SvgjsText1143" font-family="Arial" text-anchor="middle" font-size="15px" width="107px" fill="#323232" font-weight="400" align="middle" anchor="middle" family="Arial" size="15px" weight="400" font-style="" opacity="1" y="18.25" transform="rotate(0)"><tspan id="SvgjsTspan1144" dy="18" x="63.5"><tspan id="SvgjsTspan1145" style="text-decoration:;">Poetry Dataset</tspan></tspan></text></g></g><g id="SvgjsG1146"><path id="SvgjsPath1147" d="M140 95L140 123.5L140 123.5L140 152" stroke="#323232" stroke-width="2" fill="none" marker-end="url(#SvgjsMarker1148)"></path></g><g id="SvgjsG1150" transform="translate(90,152)"><path id="SvgjsPath1151" d="M 0 0L 100 0L 100 38L 0 38Z" stroke="rgba(50,50,50,1)" stroke-width="2" fill-opacity="1" fill="#ffffff"></path><g id="SvgjsG1152"><text id="SvgjsText1153" font-family="Arial" text-anchor="middle" font-size="15px" width="80px" fill="#323232" font-weight="400" align="middle" anchor="middle" family="Arial" size="15px" weight="400" font-style="" opacity="1" y="7.25" transform="rotate(0)"><tspan id="SvgjsTspan1154" dy="18" x="50"><tspan id="SvgjsTspan1155" style="text-decoration:;">Pre-training</tspan></tspan></text></g></g><g id="SvgjsG1156"><path id="SvgjsPath1157" d="M140 190L140 210.5L140 210.5L140 231" stroke="#323232" stroke-width="2" fill="none" marker-end="url(#SvgjsMarker1158)"></path></g><g id="SvgjsG1160" transform="translate(90,227)"><path id="SvgjsPath1161" d="M 0 26.5C 0 -8.833333333333334 308 -8.833333333333334 308 26.5C 308 61.833333333333336 0 61.833333333333336 0 26.5Z" stroke="rgba(50,50,50,1)" stroke-width="2" fill-opacity="1" fill="#ffffff"></path><g id="SvgjsG1162"><text id="SvgjsText1163" font-family="Arial" text-anchor="middle" font-size="15px" width="288px" fill="#323232" font-weight="400" align="middle" anchor="middle" family="Arial" size="15px" weight="400" font-style="" opacity="1" y="14.75" transform="rotate(0)"><tspan id="SvgjsTspan1164" dy="18" x="154"><tspan id="SvgjsTspan1165" style="text-decoration:;">Pre-trained models</tspan></tspan></text></g></g><g id="SvgjsG1166"><path id="SvgjsPath1167" d="M320 95L320 162.9923893961835L320.1513770290094 162.9923893961835L320.1513770290094 230.98477879236697" stroke="#323232" stroke-width="2" fill="none" marker-end="url(#SvgjsMarker1168)"></path></g><g id="SvgjsG1170"><path id="SvgjsPath1171" d="M243 281L243 309.5L243 309.5L243 338" stroke="#323232" stroke-width="2" fill="none" marker-end="url(#SvgjsMarker1172)"></path></g><g id="SvgjsG1174" transform="translate(142.5,338)"><path id="SvgjsPath1175" d="M 0 0L 203 0L 203 33L 0 33Z" stroke="rgba(50,50,50,1)" stroke-width="2" fill-opacity="1" fill="#ffffff"></path><g id="SvgjsG1176"><text id="SvgjsText1177" font-family="Arial" text-anchor="middle" font-size="15px" width="183px" fill="#323232" font-weight="400" align="middle" anchor="middle" family="Arial" size="15px" weight="400" font-style="" opacity="1" y="4.75" transform="rotate(0)"><tspan id="SvgjsTspan1178" dy="18" x="101.5"><tspan id="SvgjsTspan1179" style="text-decoration:;">Fine-Tuning</tspan></tspan></text></g></g><g id="SvgjsG1180"><path id="SvgjsPath1181" d="M244 370L244 398.5L244 398.5L244 427" stroke="#323232" stroke-width="2" fill="none" marker-end="url(#SvgjsMarker1182)"></path></g><g id="SvgjsG1184" transform="translate(180.5,430)"><path id="SvgjsPath1185" d="M 0 30C 0 -10 127 -10 127 30C 127 70 0 70 0 30Z" stroke="rgba(50,50,50,1)" stroke-width="2" fill-opacity="1" fill="#ffffff"></path><g id="SvgjsG1186"><text id="SvgjsText1187" font-family="Arial" text-anchor="middle" font-size="15px" width="107px" fill="#323232" font-weight="400" align="middle" anchor="middle" family="Arial" size="15px" weight="400" font-style="" opacity="1" y="18.25" transform="rotate(0)"><tspan id="SvgjsTspan1188" dy="18" x="63.5"><tspan id="SvgjsTspan1189" style="text-decoration:;">Model</tspan></tspan></text></g></g><g id="SvgjsG1190" transform="translate(25,525.8125)"><path id="SvgjsPath1191" d="M 0 4Q 0 0 4 0L 493.5 0Q 497.5 0 497.5 4L 497.5 168Q 497.5 172 493.5 172L 4 172Q 0 172 0 168Z" stroke-dasharray="10,6" stroke="rgba(50,50,50,1)" stroke-width="2" fill-opacity="1" fill="#ffffff"></path><g id="SvgjsG1192"><text id="SvgjsText1193" font-family="Arial" text-anchor="middle" font-size="15px" width="478px" fill="#323232" font-weight="400" align="middle" anchor="middle" family="Arial" size="15px" weight="400" font-style="" opacity="1" y="74.25" transform="rotate(0)"></text></g></g><g id="SvgjsG1194" transform="translate(58.75,532.5)"><path id="SvgjsPath1195" d="M 0 0L 78.75 0L 78.75 43.75L 0 43.75Z" stroke="none" fill="none"></path><g id="SvgjsG1196"><text id="SvgjsText1197" font-family="Arial" text-anchor="middle" font-size="15px" width="79px" fill="#323232" font-weight="400" align="middle" anchor="middle" family="Arial" size="15px" weight="400" font-style="" opacity="1" y="10.125" transform="rotate(0)"><tspan id="SvgjsTspan1198" dy="18" x="39.5"><tspan id="SvgjsTspan1199" style="text-decoration:;">Service</tspan></tspan></text></g></g><g id="SvgjsG1200" transform="translate(595.5,564.375)"><path id="SvgjsPath1201" d="M 0 0L 115 0L 115 79.625L 0 79.625Z" stroke="none" fill="url(#SvgjsPattern1202)"></path></g><g id="SvgjsG1204"><path id="SvgjsPath1205" d="M244 490L244 530.1875L244 530.1875L244 570.375" stroke="#323232" stroke-width="2" fill="none" marker-end="url(#SvgjsMarker1206)"></path></g><g id="SvgjsG1208" transform="translate(139,570.375)"><path id="SvgjsPath1209" d="M 0 33.8125C 0 -11.270833333333334 210 -11.270833333333334 210 33.8125C 210 78.89583333333333 0 78.89583333333333 0 33.8125Z" stroke="rgba(50,50,50,1)" stroke-width="2" fill-opacity="1" fill="#ffffff"></path><g id="SvgjsG1210"><text id="SvgjsText1211" font-family="Arial" text-anchor="middle" font-size="15px" width="190px" fill="#323232" font-weight="400" align="middle" anchor="middle" family="Arial" size="15px" weight="400" font-style="" opacity="1" y="22.0625" transform="rotate(0)"><tspan id="SvgjsTspan1212" dy="18" x="105"><tspan id="SvgjsTspan1213" style="text-decoration:;">MindSpore Serving</tspan></tspan></text></g></g><g id="SvgjsG1214" transform="translate(47.75,663)"><path id="SvgjsPath1215" d="M 0 0L 301.25 0L 301.25 27.125L 0 27.125Z" stroke="none" fill="none"></path><g id="SvgjsG1216"><text id="SvgjsText1217" font-family="Arial" text-anchor="middle" font-size="15px" width="302px" fill="#323232" font-weight="400" align="middle" anchor="middle" family="Arial" size="15px" weight="400" font-style="" opacity="1" y="1.8125" transform="rotate(0)"><tspan id="SvgjsTspan1218" dy="18" x="151"><tspan id="SvgjsTspan1219" style="text-decoration:;">Bare-metal/Docker deployment</tspan></tspan></text></g></g><g id="SvgjsG1220" transform="translate(390.5,564.375)"><path id="SvgjsPath1221" d="M 0 0L 95 0L 95 34L 0 34Z" stroke="rgba(50,50,50,1)" stroke-width="2" fill-opacity="1" fill="#ffffff"></path><g id="SvgjsG1222"><text id="SvgjsText1223" font-family="Arial" text-anchor="middle" font-size="15px" width="75px" fill="#323232" font-weight="400" align="middle" anchor="middle" family="Arial" size="15px" weight="400" font-style="" opacity="1" y="-4.25" transform="rotate(0)"><tspan id="SvgjsTspan1224" dy="18" x="47.5"><tspan id="SvgjsTspan1225" style="text-decoration:;">Data pre-</tspan></tspan><tspan id="SvgjsTspan1226" dy="18" x="47.5"><tspan id="SvgjsTspan1227" style="text-decoration:;">processing</tspan></tspan></text></g></g><g id="SvgjsG1228" transform="translate(391.5,607)"><path id="SvgjsPath1229" d="M 0 0L 93 0L 93 37L 0 37Z" stroke="rgba(50,50,50,1)" stroke-width="2" fill-opacity="1" fill="#ffffff"></path><g id="SvgjsG1230"><text id="SvgjsText1231" font-family="Arial" text-anchor="middle" font-size="15px" width="73px" fill="#323232" font-weight="400" align="middle" anchor="middle" family="Arial" size="15px" weight="400" font-style="" opacity="1" y="-2.75" transform="rotate(0)"><tspan id="SvgjsTspan1232" dy="18" x="46.5"><tspan id="SvgjsTspan1233" style="text-decoration:;">Data post-</tspan></tspan><tspan id="SvgjsTspan1234" dy="18" x="46.5"><tspan id="SvgjsTspan1235" style="text-decoration:;">precessing</tspan></tspan></text></g></g><g id="SvgjsG1236"><path id="SvgjsPath1237" d="M390.5 581.375L362.5 581.375L362.5 580.875L334.5 580.875" stroke="#323232" stroke-width="2" fill="none" marker-end="url(#SvgjsMarker1238)"></path></g><g id="SvgjsG1240"><path id="SvgjsPath1241" d="M589.5 580.875L537.5 580.875L537.5 581.375L485.5 581.375" stroke="#323232" stroke-width="2" fill="none" marker-end="url(#SvgjsMarker1242)"></path></g><g id="SvgjsG1244"><path id="SvgjsPath1245" d="M484.5 625.5L531.5 625.5L531.5 625.5L578.5 625.5" stroke="#323232" stroke-width="2" fill="none" marker-end="url(#SvgjsMarker1246)"></path></g><g id="SvgjsG1248"><path id="SvgjsPath1249" d="M336.5 626.1875L363.5 626.1875L363.5 626.1875L390.5 626.1875" stroke="#323232" stroke-width="2" fill="none" marker-end="url(#SvgjsMarker1250)"></path></g><g id="SvgjsG1252" transform="translate(613.5,523)"><path id="SvgjsPath1253" d="M 0 0L 86 0L 86 24L 0 24Z" stroke="none" fill="none"></path><g id="SvgjsG1254"><text id="SvgjsText1255" font-family="Arial" text-anchor="middle" font-size="15px" width="86px" fill="#323232" font-weight="400" align="middle" anchor="middle" family="Arial" size="15px" weight="400" font-style="" opacity="1" y="0.25" transform="rotate(0)"><tspan id="SvgjsTspan1256" dy="18" x="43"><tspan id="SvgjsTspan1257" style="text-decoration:;">Clients</tspan></tspan></text></g></g><g id="SvgjsG1258" transform="translate(530.5,545)"><path id="SvgjsPath1259" d="M 0 0L 48 0L 48 23L 0 23Z" stroke="none" fill="none"></path><g id="SvgjsG1260"><text id="SvgjsText1261" font-family="Arial" text-anchor="middle" font-size="15px" width="48px" fill="#323232" font-weight="400" align="middle" anchor="middle" family="Arial" size="15px" weight="400" font-style="" opacity="1" y="-0.25" transform="rotate(0)"><tspan id="SvgjsTspan1262" dy="18" x="24"><tspan id="SvgjsTspan1263" style="text-decoration:;">Http</tspan></tspan></text></g></g><g id="SvgjsG1264" transform="translate(272.5,25)"><path id="SvgjsPath1265" d="M 10.799999999999999 49C -9 35 3.6 24.5 8.1 21C 6.300000000000001 3.5 28.8 0 37.8 7C 45 -3.5 67.5 0 67.5 10.5C 85.5 7 92.7 21 85.5 38.5C 91.8 52.5 85.5 70 64.8 63C 60.300000000000004 72.10000000000001 42.3 72.10000000000001 37.8 63C 28.8 70 10.799999999999999 66.5 10.799999999999999 49Z" stroke="rgba(50,50,50,1)" stroke-width="2" fill-opacity="1" fill="#ffffff"></path><g id="SvgjsG1266"><text id="SvgjsText1267" font-family="Arial" text-anchor="middle" font-size="15px" width="70px" fill="#323232" font-weight="400" align="middle" anchor="middle" family="Arial" size="15px" weight="400" font-style="" opacity="1" y="23.25" transform="rotate(0)"><tspan id="SvgjsTspan1268" dy="18" x="45"><tspan id="SvgjsTspan1269" style="text-decoration:;">ModelHub</tspan></tspan></text></g></g></svg>